<svg width="33" height="32" viewBox="0 0 33 32" fill="none" xmlns="http://www.w3.org/2000/svg">
<g id="Isotipo">
<path id="Vector" d="M9.49942 3.98008C6.04337 6.99104 4.50265 11.3071 4.88128 15.4801C4.91753 15.8729 5.29214 16.1427 5.6748 16.0481L7.18733 15.6795C7.48944 15.605 7.69688 15.3271 7.67472 15.0189C7.44512 11.8247 8.63138 8.54989 11.2375 6.21363C15.2595 2.60854 21.4647 2.58034 25.5169 6.15119C30.2237 10.3001 30.3949 17.4881 26.0265 21.8585C23.7264 24.1585 20.643 25.1978 17.634 24.9823C17.3259 24.9601 17.048 25.1696 16.9755 25.4697L16.6069 26.9822C16.5142 27.3648 16.7821 27.7415 17.1748 27.7757C21.0559 28.1282 25.0597 26.8231 28.0244 23.8564C33.5528 18.3279 33.3152 9.18632 27.3134 3.97001C22.2441 -0.438672 14.5647 -0.434644 9.49942 3.97807" fill="black"/>
<path id="Vector_2" d="M20.4516 16.2857C21.7064 15.031 21.5614 12.8941 20.0106 11.8428C19.0761 11.2104 17.8193 11.1943 16.8687 11.8045C16.3894 12.1126 16.0409 12.5235 15.8194 12.9807C15.6885 13.2486 15.9402 13.5466 16.2302 13.4761L16.4578 13.4197C16.9211 13.307 17.3561 13.1116 17.7891 12.9102C18.3329 12.6564 19.0015 12.7531 19.4507 13.2042C19.8998 13.6534 19.9985 14.32 19.7447 14.8658C19.5433 15.2988 19.3479 15.7359 19.2352 16.1991L19.1788 16.4287C19.1083 16.7147 19.4023 16.9684 19.6682 16.8416C19.9522 16.7046 20.216 16.5213 20.4516 16.2857Z" fill="black"/>
<path id="Vector_3" d="M23.7365 19.5701C26.7757 16.533 26.6689 11.5221 23.4183 8.62192C20.5745 6.08426 16.1799 6.1044 13.3583 8.66422C11.7974 10.0801 10.9817 11.9873 10.8992 13.9208C10.881 14.3538 11.2738 14.6861 11.6927 14.5834L12.5345 14.378C12.8024 14.3135 12.9978 14.0839 13.0199 13.808C13.1287 12.4687 13.7329 11.1596 14.8366 10.1848C16.8788 8.38024 20.0327 8.40441 22.0488 10.2392C24.3488 12.3317 24.4132 15.8966 22.2381 18.0717C21.2915 19.0183 20.0811 19.5399 18.8425 19.6386C18.5706 19.6608 18.343 19.8581 18.2785 20.124L18.0731 20.9658C17.9704 21.3848 18.3027 21.7775 18.7357 21.7594C20.5544 21.6828 22.3509 20.9558 23.7365 19.5701Z" fill="black"/>
<path id="Vector_4" d="M18.7679 14.3138L13.5093 31.7391C13.4368 31.9808 13.1327 32.0573 12.9535 31.8801L8.84487 27.7715C8.68577 27.6144 8.46221 27.5419 8.24067 27.5781L4.71412 28.3193C4.57314 28.3415 4.48654 28.1723 4.58724 28.0716L16.0752 16.5836C16.1336 16.5252 16.0551 16.4306 15.9866 16.4789L5.38278 23.9207C5.24985 24.0133 5.0706 23.9992 4.9558 23.8844L0.776718 19.7053C0.59747 19.5281 0.674003 19.222 0.915685 19.1495L18.3027 13.8546C18.5867 13.768 18.8505 14.0319 18.7659 14.3158" fill="#00D9A2"/>
</g>
</svg>
